<svg width="300" height="300" viewBox="0 0 300 300" fill="none" xmlns="http://www.w3.org/2000/svg">
  <rect width="300" height="300" fill="#f5f5f5"/>
  <path d="M150 70C127.909 70 110 87.9086 110 110C110 132.091 127.909 150 150 150C172.091 150 190 132.091 190 110C190 87.9086 172.091 70 150 70ZM150 140C133.431 140 120 126.569 120 110C120 93.4315 133.431 80 150 80C166.569 80 180 93.4315 180 110C180 126.569 166.569 140 150 140Z" fill="#666666"/>
  <path d="M85 190V200H215V190H85ZM85 210V220H215V210H85Z" fill="#666666"/>
</svg> 